<?xml version="1.0" encoding="UTF-8" standalone="no"?>
<!-- Created with Inkscape (http://www.inkscape.org/) -->

<svg
   xmlns:dc="http://purl.org/dc/elements/1.1/"
   xmlns:cc="http://creativecommons.org/ns#"
   xmlns:rdf="http://www.w3.org/1999/02/22-rdf-syntax-ns#"
   xmlns:svg="http://www.w3.org/2000/svg"
   xmlns="http://www.w3.org/2000/svg"
   xmlns:sodipodi="http://sodipodi.sourceforge.net/DTD/sodipodi-0.dtd"
   xmlns:inkscape="http://www.inkscape.org/namespaces/inkscape"
   width="300mm"
   height="300mm"
   viewBox="0 0 1062.9921 1062.9921"
   id="svg2"
   version="1.1"
   inkscape:version="0.92.5 (2060ec1f9f, 2020-04-08)"
   sodipodi:docname="LogoWhite.svg">
  <defs
     id="defs4">
    <inkscape:perspective
       sodipodi:type="inkscape:persp3d"
       inkscape:vp_x="1689.7432 : -15.395792 : 1"
       inkscape:vp_y="0 : 999.99993 : 0"
       inkscape:vp_z="2325.9955 : -23.047961 : 1"
       inkscape:persp3d-origin="1888.4955 : -127.21462 : 1"
       id="perspective78" />
  </defs>
  <sodipodi:namedview
     id="base"
     pagecolor="#ffffff"
     bordercolor="#666666"
     borderopacity="1.0"
     inkscape:pageopacity="0"
     inkscape:pageshadow="2"
     inkscape:zoom="0.61257141"
     inkscape:cx="537.94996"
     inkscape:cy="524.72017"
     inkscape:document-units="px"
     inkscape:current-layer="flowRoot4245"
     showgrid="false"
     fit-margin-top="0"
     fit-margin-left="0"
     fit-margin-right="0"
     fit-margin-bottom="0"
     inkscape:window-width="1652"
     inkscape:window-height="1022"
     inkscape:window-x="12"
     inkscape:window-y="12"
     inkscape:window-maximized="1" />
  <metadata
     id="metadata7">
    <rdf:RDF>
      <cc:Work
         rdf:about="">
        <dc:format>image/svg+xml</dc:format>
        <dc:type
           rdf:resource="http://purl.org/dc/dcmitype/StillImage" />
        <dc:title></dc:title>
      </cc:Work>
    </rdf:RDF>
  </metadata>
  <g
     inkscape:label="Layer 1"
     inkscape:groupmode="layer"
     id="layer1"
     transform="translate(79.73327,241.04465)">
    <flowRoot
       xml:space="preserve"
       id="flowRoot4229"
       style="font-style:normal;font-weight:normal;line-height:0.01%;font-family:sans-serif;letter-spacing:0px;word-spacing:0px;fill:#000000;fill-opacity:1;stroke:none;stroke-width:1px;stroke-linecap:butt;stroke-linejoin:miter;stroke-opacity:1"
       transform="translate(87.23473,-189.77379)"><flowRegion
         id="flowRegion4231"><rect
           id="rect4233"
           width="1028.5714"
           height="337.14285"
           x="80"
           y="220.93364"
           style="font-size:90px" /></flowRegion><flowPara
         id="flowPara4235"
         style="font-size:90px;line-height:1.25"> </flowPara></flowRoot>    <flowRoot
       xml:space="preserve"
       id="flowRoot4237"
       style="font-style:normal;font-weight:normal;line-height:0.01%;font-family:sans-serif;letter-spacing:0px;word-spacing:0px;fill:#000000;fill-opacity:1;stroke:none;stroke-width:1px;stroke-linecap:butt;stroke-linejoin:miter;stroke-opacity:1"
       transform="translate(87.23473,-189.77379)"><flowRegion
         id="flowRegion4239"><rect
           id="rect4241"
           width="845.71429"
           height="694.28571"
           x="71.428574"
           y="200.93364"
           style="font-size:90px" /></flowRegion><flowPara
         id="flowPara4243"
         style="font-size:90px;line-height:1.25"> </flowPara></flowRoot>    <g
       transform="translate(172.28571,132.28571)"
       style="color:#000000;font-style:normal;font-weight:normal;font-size:5px;line-height:125%;font-family:sans-serif;letter-spacing:0px;word-spacing:0px;clip-rule:nonzero;display:inline;overflow:visible;visibility:visible;opacity:1;isolation:auto;mix-blend-mode:normal;color-interpolation:sRGB;color-interpolation-filters:linearRGB;solid-color:#000000;solid-opacity:1;fill:#008080;fill-opacity:1;fill-rule:nonzero;stroke:none;stroke-width:1px;stroke-linecap:butt;stroke-linejoin:miter;stroke-miterlimit:4;stroke-dasharray:none;stroke-dashoffset:0;stroke-opacity:1;color-rendering:auto;image-rendering:auto;shape-rendering:auto;text-rendering:auto;enable-background:accumulate"
       id="flowRoot4245">
      <path
         style="color:#000000;font-style:normal;font-weight:normal;font-size:5px;line-height:125%;font-family:sans-serif;letter-spacing:0px;word-spacing:0px;clip-rule:nonzero;display:inline;overflow:visible;visibility:visible;opacity:1;isolation:auto;mix-blend-mode:normal;color-interpolation:sRGB;color-interpolation-filters:linearRGB;solid-color:#000000;solid-opacity:1;fill:#000000;fill-opacity:1;fill-rule:nonzero;stroke:none;stroke-width:1px;stroke-linecap:butt;stroke-linejoin:miter;stroke-miterlimit:4;stroke-dasharray:none;stroke-dashoffset:0;stroke-opacity:1;color-rendering:auto;image-rendering:auto;shape-rendering:auto;text-rendering:auto;enable-background:accumulate"
         d="m -117.40955,437.38803 c 0,-20.83334 0,-41.66668 0,-62.50002 41.666678,0 83.333358,0 125.0000295,0 0,-41.66666 0,-83.33333 0,-125 41.6666605,0 83.3333405,0 125.0000105,0 0,-41.66667 0,-83.33334 0,-125.00001 -41.66667,0 -83.33335,0 -125.0000105,0 0,-41.666655 0,-83.333339 0,-124.9999996 -41.6666715,0 -83.3333515,0 -125.0000295,0 0,-41.6666694 0,-83.3333494 0,-125.0000204 41.666678,0 83.333358,0 125.0000295,0 0,41.666671 0,83.333351 0,125.0000204 41.6666605,0 83.3333405,0 125.0000105,0 0,41.6666606 0,83.3333446 0,124.9999996 41.66667,0 83.33334,0 125.00001,0 0,-41.666655 0,-83.333339 0,-124.9999996 41.66666,0 83.33335,0 125.00001,0 0,-41.6666694 0,-83.3333494 0,-125.0000204 41.66667,0 83.33336,0 125.00002,0 0,41.666671 0,83.333351 0,125.0000204 41.66667,0 83.33334,0 125.00001,0 0,41.6666606 0,83.3333446 0,124.9999996 41.66667,0 83.33335,0 125.00001,0 0,41.66667 0,83.33334 0,125.00001 -41.66666,0 -83.33334,0 -125.00001,0 0,41.66667 0,83.33334 0,125 -41.66667,0 -83.33334,0 -125.00001,0 0,41.66668 0,83.33334 0,125.00001 -41.66666,0 -83.33335,0 -125.00002,0 0,-41.66667 0,-83.33333 0,-125.00001 -41.66666,0 -83.33335,0 -125.00001,0 0,-41.66666 0,-83.33333 0,-125 -41.66667,0 -83.33334,0 -125.00001,0 0,41.66667 0,83.33334 0,125 -41.66667,0 -83.33335,0 -125.0000105,0 0,41.66668 0,83.33334 0,125.00001 -41.6666715,0 -83.3333515,0 -125.0000295,0 0,-20.83333 0,-41.66667 0,-62.49999 z"
         id="path4707-3"
         inkscape:connector-curvature="0" />
      <path
         style="fill:#f9f9f9;stroke:#000000;stroke-width:3.54330697"
         d="m -164.28425,389.51333 c 0,-20.83334 0,-41.66667 0,-62.50001 41.66666,0 83.333348,0 125.000017,0 0,-41.66667 0,-83.33334 0,-125.00001 41.6666709,0 83.333344,0 125.000013,0 0,-41.66667 0,-83.33334 0,-125.000005 -41.666669,0 -83.3333421,0 -125.000013,0 0,-41.666674 0,-83.3333444 0,-125.000014 -41.666669,0 -83.333357,0 -125.000017,0 0,-41.66667 0,-83.333351 0,-125.000021 41.66666,0 83.333348,0 125.000017,0 0,41.66667 0,83.333351 0,125.000021 41.6666709,0 83.333344,0 125.000013,0 0,41.6666696 0,83.33334 0,125.000014 41.66668,0 83.33335,0 125.00002,0 0,-41.666674 0,-83.3333444 0,-125.000014 41.66667,0 83.33335,0 125.00002,0 0,-41.66667 0,-83.333351 0,-125.000021 41.66667,0 83.33335,0 125.00002,0 0,41.66667 0,83.333351 0,125.000021 41.66667,0 83.33334,0 125.00001,0 0,41.6666696 0,83.33334 0,125.000014 41.66667,0 83.33335,0 125.00002,0 0,41.666665 0,83.333335 0,125.000005 -41.66667,0 -83.33335,0 -125.00002,0 0,41.66667 0,83.33334 0,125.00001 -41.66667,0 -83.33334,0 -125.00001,0 0,41.66667 0,83.33334 0,125.00001 -41.66667,0 -83.33335,0 -125.00002,0 0,-41.66667 0,-83.33334 0,-125.00001 -41.66667,0 -83.33335,0 -125.00002,0 0,-41.66667 0,-83.33334 0,-125.00001 -41.66667,0 -83.33334,0 -125.00002,0 0,41.66667 0,83.33334 0,125.00001 -41.666669,0 -83.3333421,0 -125.000013,0 0,41.66667 0,83.33334 0,125.00001 -41.666669,0 -83.333357,0 -125.000017,0 0,-20.83333 0,-41.66667 0,-62.5 z"
         id="path4707"
         inkscape:connector-curvature="0" />
    </g>
  </g>
</svg>
